# xmcd
#
# Track frame offsets: 
#        150
#        16315
#        39094
#        56684
#        81105
#        101680
#        123707
#        156703
#        183179
#        207814
#        227518
#        257929
#        280803
#        300570
#        320238
#
# Disc length: 4577 seconds
#
# Revision: 0
# Processed by: cddbd v1.5.2PL0 Copyright (c) Steve Scherf et al.
# Submitted via: ExactAudioCopy v1.3
#
DISCID=ce11df0f
DTITLE=Various Artist - Burning Blues  vol. 04
DYEAR=2018
DGENRE=Blues
TTITLE0=Jamell Richardson - Blues How I Wanna Blues
TTITLE1=Roger Girke - Wandering Soul
TTITLE2=Hans Van Lier Band - I'm In Love
TTITLE3=Matt Minglewood - Soft Place To Fall
TTITLE4=Karen Lovely - Molotov Cocktails
TTITLE5=Ricky Byrd - Clean Getaway
TTITLE6=Sean Webster - Start again
TTITLE7=Lilly Martin - I Pity The Fool
TTITLE8=Zed Mitchell - After Love
TTITLE9=Paradise Kings - I'd Sing The Blues If I Had 'em
TTITLE10=Lil' Ed And The Blues Imperials - I'll Cry Tomorrow
TTITLE11=The Original Blues Brothers Band - Don't Go No Further
TTITLE12=Neal Black and Larry Garner - God Today
TTITLE13=Tom "Trashmouth" Baker - Deviant
TTITLE14=Lizz Wright - Barley
EXTD=
EXTT0=
EXTT1=
EXTT2=
EXTT3=
EXTT4=
EXTT5=
EXTT6=
EXTT7=
EXTT8=
EXTT9=
EXTT10=
EXTT11=
EXTT12=
EXTT13=
EXTT14=
PLAYORDER=
